#!OML:ASF H:\charlestonDancing\Project 1\Capture day 1\Session 1\femaleDancer.ASF
:FULLY-SPECIFIED
:DEGREES
18
root -0.794147 17.709 4.82311 146.538 -84.9185 -136.39
lowerback 16.9973 -5.87146 1.55059
upperback 4.61307 -7.67704 -0.0338029
thorax -4.72058 -3.87391 0.69777
lowerneck 1.99142 9.46187 9.71937
upperneck -0.234903 12.8527 -10.8683
head 0.950978 6.47253 -4.61938
rclavicle 4.77083e-015 -2.54444e-014
rhumerus -40.399 -14.8975 -57.9015
rradius 91.6368
rwrist -41.0607
rhand -10.4046 -31.4423
rfingers 7.12502
rthumb 15.594 -60.8337
lclavicle 4.77083e-015 -2.54444e-014
lhumerus -1.25542 -8.45195 64.6103
lradius 82.2079
lwrist 1.43746
lhand -28.3486 2.42517
lfingers 7.12502
lthumb -1.72256 32.398
rfemur -31.9553 -1.85783 28.8483
rtibia 36.2082
rfoot -13.1303 3.16355
rtoes -11.1226
lfemur -21.3142 9.83265 -20.341
ltibia 60.2657
lfoot -5.3286 0.912319
ltoes -21.0136
19
root -0.725577 17.6785 4.85855 144.251 -85.075 -133.519
lowerback 16.9577 -5.99241 1.78502
upperback 4.52129 -7.78083 0.117483
thorax -4.80648 -3.92275 0.751924
lowerneck 1.90587 9.61005 9.77073
upperneck -0.639597 13.0284 -11.1291
head 0.885505 6.56264 -4.70261
rclavicle 1.02573e-013 1.43125e-014
rhumerus -40.0413 -14.7059 -57.5488
rradius 92.0082
rwrist -41.6203
rhand -10.481 -31.7103
rfingers 7.12502
rthumb 15.5204 -61.1074
lclavicle 1.02573e-013 1.43125e-014
lhumerus 0.413598 -7.95918 64.5344
lradius 81.3377
lwrist 0.0563511
lhand -28.0863 1.77898
lfingers 7.12502
lthumb -1.46924 31.7537
rfemur -33.32 -1.94836 28.8634
rtibia 37.0198
rfoot -13.0646 3.09171
rtoes -12.1116
lfemur -19.3351 9.11728 -20.5227
ltibia 56.5969
lfoot -5.96915 0.956135
ltoes -26.4302
20
root -0.652562 17.6306 4.89633 142.55 -85.259 -131.098
lowerback 16.7806 -6.15058 1.91452
upperback 4.3683 -7.9508 0.254357
thorax -4.87393 -4.00206 0.851257
lowerneck 1.88978 9.83692 9.82392
upperneck -1.00016 13.3157 -11.277
head 0.826312 6.7098 -4.75034
rclavicle 4.33351e-014 1.98785e-014
rhumerus -39.57 -14.3959 -57.2672
rradius 92.2905
rwrist -42.1533
rhand -10.6581 -32.0783
rfingers 7.12502
rthumb 15.3499 -61.4886
lclavicle 4.33351e-014 1.98785e-014
lhumerus 1.59412 -7.276 64.6611
lradius 80.6645
lwrist -1.08515
lhand -27.8117 1.4732
lfingers 7.12502
lthumb -1.20409 31.4495
rfemur -35.0807 -1.953 28.7897
rtibia 38.1919
rfoot -12.9047 2.96065
rtoes -13.3033
lfemur -17.7722 8.10098 -20.746
ltibia 52.3447
lfoot -9.04137 -0.998432
ltoes -23.6724
21
root -0.578756 17.5938 4.93155 143.898 -85.4569 -131.72
lowerback 16.6244 -6.26751 1.75222
upperback 4.1898 -8.11919 0.299902
thorax -4.95392 -4.07775 1.01707
lowerneck 1.94313 10.0907 10.1243
upperneck -1.33331 13.6526 -11.6642
head 0.804275 6.88401 -4.90464
rclavicle 7.15625e-015 -1.66979e-014
rhumerus -39.0033 -13.9841 -57.1122
rradius 92.4829
rwrist -42.681
rhand -10.9603 -32.4944
rfingers 7.12502
rthumb 15.0588 -61.9267
lclavicle 7.15625e-015 -1.66979e-014
lhumerus 2.46644 -6.66116 64.7388
lradius 80.0887
lwrist -1.85305
lhand -27.6922 1.58274
lfingers 7.12502
lthumb -1.08864 31.5597
rfemur -37.0082 -1.64157 28.4219
rtibia 39.7288
rfoot -12.6661 2.75696
rtoes -13.2329
lfemur -16.1331 7.49132 -21.1963
ltibia 48.3282
lfoot -12.2836 -2.67917
ltoes -22.7801
22
root -0.499733 17.56 4.96077 147.975 -85.6025 -134.98
lowerback 16.4515 -6.29179 1.40656
upperback 3.92951 -8.196 0.290845
thorax -5.09391 -4.10441 1.20971
lowerneck 2.04276 10.2598 10.4623
upperneck -1.62734 13.8817 -12.0106
head 0.776235 7.00504 -5.05885
rclavicle -1.44318e-013 2.94201e-014
rhumerus -38.5804 -13.5271 -56.897
rradius 92.6868
rwrist -43.2295
rhand -11.0593 -32.7142
rfingers 7.12502
rthumb 14.9634 -62.1536
lclavicle -1.44318e-013 2.94201e-014
lhumerus 3.04457 -6.42769 64.7448
lradius 79.5419
lwrist -2.32211
lhand -27.9668 1.73813
lfingers 7.12502
lthumb -1.35389 31.7136
rfemur -39.2383 -0.958185 27.8508
rtibia 41.6231
rfoot -12.1988 2.40951
rtoes -12.5107
lfemur -15.095 7.06328 -21.7868
ltibia 44.7226
lfoot -14.998 -3.30543
ltoes -25.7389
23
root -0.416458 17.5237 4.98229 154.7 -85.8748 -140.79
lowerback 16.2596 -6.32252 0.796958
upperback 3.58112 -8.32455 0.232805
thorax -5.2865 -4.14985 1.50851
lowerneck 2.12723 10.4459 10.4787
upperneck -1.92987 14.1223 -11.8553
head 0.689829 7.12918 -5.01858
rclavicle -1.19271e-014 1.59028e-014
rhumerus -38.2246 -12.9824 -56.7193
rradius 92.8972
rwrist -43.7508
rhand -11.0709 -32.7862
rfingers 7.12502
rthumb 14.9522 -62.2265
lclavicle -1.19271e-014 1.59028e-014
lhumerus 3.25952 -6.3272 64.7285
lradius 79.1076
lwrist -2.41718
lhand -28.2412 2.20241
lfingers 7.12502
lthumb -1.61889 32.176
rfemur -41.8618 -0.181925 26.9979
rtibia 43.8449
rfoot -11.3349 1.88721
rtoes -13.3379
lfemur -14.919 6.38515 -22.5613
ltibia 41.9113
lfoot -16.5254 -4.94137
ltoes -16.2368
24
root -0.341711 17.5041 4.99699 165.18 -86.4088 -150.551
lowerback 16.1829 -6.42876 -0.0715794
upperback 3.33674 -8.60851 0.0474662
thorax -5.40644 -4.26952 1.85093
lowerneck 2.11867 10.6933 10.5423
upperneck -2.31119 14.4357 -11.7435
head 0.609607 7.28699 -4.99158
rclavicle 5.1684e-014 1.43125e-014
rhumerus -37.8031 -12.559 -56.7943
rradius 93.0726
rwrist -44.1166
rhand -11.191 -33.0229
rfingers 7.12502
rthumb 14.8365 -62.4718
lclavicle 5.1684e-014 1.43125e-014
lhumerus 3.45086 -6.24741 64.4547
lradius 78.7364
lwrist -1.82884
lhand -27.7075 3.02766
lfingers 7.12502
lthumb -1.10344 33.0046
rfemur -44.3419 0.382454 25.7395
rtibia 46.2267
rfoot -10.3774 1.15104
rtoes -16.235
lfemur -14.9207 6.08354 -23.711
ltibia 39.8707
lfoot -18.0229 -4.04587
ltoes -21.6272
25
root -0.276131 17.477 5.00496 178.636 -87.0487 -163.643
lowerback 16.2596 -6.58107 -0.853783
upperback 3.30824 -8.95481 -0.225046
thorax -5.39703 -4.42762 2.06914
lowerneck 2.02262 10.9026 10.8478
upperneck -2.75141 14.6927 -12.0705
head 0.572819 7.41626 -5.12591
rclavicle -8.98507e-014 -6.36111e-015
rhumerus -37.513 -12.4079 -57.0151
rradius 93.3353
rwrist -44.2122
rhand -11.483 -33.4363
rfingers 7.12502
rthumb 14.5552 -62.9056
lclavicle -8.98507e-014 -6.36111e-015
lhumerus 3.69657 -6.29725 64.1157
lradius 78.1885
lwrist -1.06822
lhand -26.8911 3.57954
lfingers 7.12502
lthumb -0.314888 33.559
rfemur -46.3831 0.73316 24.3725
rtibia 48.6301
rfoot -9.4379 0.23837
rtoes -17.4006
lfemur -14.752 5.92699 -24.8414
ltibia 38.3827
lfoot -18.7174 -4.36862
ltoes -19.9726
26
root -0.221561 17.459 5.00557 193.728 -87.715 -178.611
lowerback 16.4805 -6.77487 -1.33229
upperback 3.34302 -9.30627 -0.433152
thorax -5.42778 -4.59265 2.20486
lowerneck 2.06947 11.0333 10.8454
upperneck -3.27129 14.8404 -12.2343
head 0.442835 7.49603 -5.18686
rclavicle 2.94201e-014 -5.725e-014
rhumerus -37.5408 -12.2736 -57.1216
rradius 93.7241
rwrist -44.1485
rhand -11.8114 -33.7381
rfingers 7.12502
rthumb 14.2387 -63.23
lclavicle 2.94201e-014 -5.725e-014
lhumerus 3.68017 -6.49044 64.1319
lradius 77.2357
lwrist -0.753625
lhand -26.6679 3.46832
lfingers 7.12502
lthumb -0.0993819 33.448
rfemur -47.932 0.883741 23.2602
rtibia 50.8385
rfoot -8.99486 -0.645278
rtoes -15.3707
lfemur -14.6139 5.8483 -25.6515
ltibia 37.4586
lfoot -19.1145 -4.48243
ltoes -20.2725
27
root -0.188066 17.4548 5.00501 210.649 -88.4114 -195.607
lowerback 16.7218 -6.99168 -1.36395
upperback 3.3836 -9.60554 -0.52691
thorax -5.51415 -4.73625 2.21335
lowerneck 2.36392 11.0589 10.5515
upperneck -3.77513 14.8579 -12.2143
head 0.226519 7.51894 -5.17624
rclavicle 1.35969e-013 2.8625e-014
rhumerus -37.8253 -12.1789 -57.0527
rradius 94.0613
rwrist -44.0518
rhand -11.9658 -33.7336
rfingers 7.12502
rthumb 14.09 -63.2359
lclavicle 1.35969e-013 2.8625e-014
lhumerus 3.44751 -6.98145 64.4093
lradius 75.8391
lwrist -0.674624
lhand -26.8496 3.1395
lfingers 7.12502
lthumb -0.274856 33.1191
rfemur -48.8176 0.863911 22.5596
rtibia 52.7965
rfoot -10.4523 -1.1688
rtoes -14.8793
lfemur -14.3834 5.78703 -26.0084
ltibia 36.852
lfoot -19.1916 -4.44125
ltoes -21.86
28
root -0.177859 17.4567 5.00755 233.781 -89.0095 -218.987
lowerback 16.8956 -7.14551 -0.977409
upperback 3.45791 -9.74352 -0.542143
thorax -5.58892 -4.80792 2.03797
lowerneck 2.74541 10.987 10.2176
upperneck -4.08798 14.7552 -12.3438
head 0.0482343 7.4869 -5.20788
rclavicle 1.27222e-014 1.59028e-015
rhumerus -38.3594 -12.2928 -56.8236
rradius 94.3416
rwrist -44.0148
rhand -12.1206 -33.5491
rfingers 7.12502
rthumb 13.9407 -63.0617
lclavicle 1.27222e-014 1.59028e-015
lhumerus 2.85349 -7.59324 65.1215
lradius 74.2359
lwrist -0.78918
lhand -27.0062 3.04956
lfingers 7.12502
lthumb -0.426065 33.0289
rfemur -49.0173 0.811244 22.265
rtibia 54.4879
rfoot -13.0759 -1.05618
rtoes -16.367
lfemur -14.041 5.79267 -26.0052
ltibia 36.5683
lfoot -18.9124 -4.69165
ltoes -22.4293
